<svg width="35" height="35" viewBox="0 0 35 35" fill="none" xmlns="http://www.w3.org/2000/svg">
<circle cx="17.5" cy="17.5" r="17.5" fill="#EDEDED"/>
<path d="M17.5 27.4834C16.8257 27.4834 16.2793 26.937 16.2793 26.2627V10.7373C16.2793 10.063 16.8257 9.5166 17.5 9.5166C18.1743 9.5166 18.7207 10.063 18.7207 10.7373V26.2627C18.7207 26.937 18.1743 27.4834 17.5 27.4834Z" fill="black"/>
<path d="M25.2627 19.7207H9.7373C9.06299 19.7207 8.5166 19.1743 8.5166 18.5C8.5166 17.8257 9.06299 17.2793 9.7373 17.2793H25.2627C25.937 17.2793 26.4834 17.8257 26.4834 18.5C26.4834 19.1743 25.937 19.7207 25.2627 19.7207Z" fill="black"/>
</svg>
