<svg width="155" height="44" viewBox="0 0 155 44" fill="none" xmlns="http://www.w3.org/2000/svg">
<g clip-path="url(#clip0_69_2)">
<path d="M38.9231 25.6313H35.5013V43.538H39.101V37.2093C40.0714 38.5679 41.5019 39.1819 43.1589 39.1819C46.6057 39.1819 48.8772 36.4684 48.8772 32.3169C48.8772 28.064 46.5535 25.2727 43.006 25.2727C41.3203 25.2727 39.8917 25.914 38.9231 27.2706V25.6313ZM42.1128 28.1925C44.052 28.1925 45.2524 29.7303 45.2524 32.3169C45.2524 34.8274 44.079 36.3382 42.1398 36.3382C40.1487 36.3382 38.9735 34.8275 38.9735 32.2662C38.9735 29.705 40.1487 28.1925 42.1128 28.1925Z" fill="white"/>
<path d="M150.947 0.00231934C150.718 1.17968 149.599 1.69236 148.227 1.69236C146.855 1.69236 145.737 1.17968 145.507 0.00231934H144.087C144.087 2.6396 145.76 3.69019 148.227 3.69019C150.691 3.69019 152.37 2.6396 152.37 0.00231934H150.947ZM154.353 18.2388V5.02149H150.257L145.582 13.9623V5.02149H142.127V18.2388H146.221L150.896 9.30169V18.2388H154.353Z" fill="white"/>
<path d="M136.907 18.2388H140.49V5.02148H136.907V18.2388ZM135.255 13.888C135.255 11.0188 133.094 9.55531 130.452 9.55531H127.604V5.02336H124.047V18.2388H130.298C133.144 18.2388 135.255 16.8042 135.255 13.888ZM127.604 12.015H129.41C130.657 12.015 131.62 12.6055 131.62 13.888C131.62 15.165 130.758 15.7301 129.437 15.7301H127.604V12.015Z" fill="white"/>
<path d="M122.421 18.2388V5.02148H118.838V9.81246H113.778V5.02148H110.195V18.2388H113.778V12.6815H118.838V18.2388H122.421Z" fill="white"/>
<path d="M108.795 13.888C108.795 11.017 106.635 9.55531 103.991 9.55531H100.51V5.02148H96.9544V18.2388H103.837C106.685 18.2388 108.795 16.8042 108.795 13.888ZM100.51 12.015H102.951C104.197 12.015 105.161 12.6055 105.161 13.888C105.161 15.165 104.299 15.7301 102.974 15.7301H100.51V12.015Z" fill="white"/>
<path d="M95.2021 18.2398V5.02246H84.6796L84.4765 12.8854C84.4231 14.7818 83.8909 15.6278 82.8502 15.6278C82.4676 15.6278 82.0866 15.5518 81.8331 15.4993V18.3956C82.2141 18.5478 83.2816 18.6528 83.7886 18.6528C87.7529 18.6528 87.9056 15.2184 88.0079 12.4761L88.1606 7.8156H91.6165V18.2398H95.2021Z" fill="white"/>
<path d="M80.7787 18.2377C80.2953 17.1111 80.3205 15.8559 80.3205 14.6532V8.93833C80.3205 5.25051 77.2442 4.63647 74.6023 4.63647C70.8157 4.63647 68.7312 6.14707 68.528 9.09594H71.9084C72.1636 7.58345 72.8482 7.07089 74.5016 7.07089C76.1029 7.07089 76.8647 7.63423 76.8647 8.83879C76.8647 9.91471 76.0004 10.1194 73.6623 10.4273C71.071 10.7606 67.9441 11.1681 67.9441 14.626C67.9441 17.1111 69.723 18.6235 72.62 18.6235C74.1961 18.6235 75.7451 18.0838 76.8647 16.9553C76.9136 17.5458 76.9418 17.7523 77.1182 18.2377H80.7787ZM76.838 11.8093V13.2964C76.838 15.1893 75.5187 16.2397 73.6354 16.2397C72.3917 16.2397 71.6532 15.575 71.6532 14.4719C71.6532 12.858 73.0533 12.7059 74.2968 12.4976C75.2115 12.3491 76.0004 12.2948 76.838 11.8093Z" fill="white"/>
<path d="M57.1764 5.02416H53.771V22.9273H57.3544V16.6039C58.3194 17.9606 59.7428 18.5746 61.396 18.5746C64.8268 18.5746 67.0875 15.8595 67.0875 11.7079C67.0875 7.45858 64.7729 4.66553 61.2416 4.66553C59.5649 4.66553 58.1414 5.30847 57.1764 6.66335V5.02416ZM60.352 7.58714C62.2839 7.58714 63.479 9.12317 63.479 11.7079C63.479 14.2203 62.3108 15.7327 60.3771 15.7327C58.395 15.7327 57.2286 14.2202 57.2286 11.6589C57.2286 9.09779 58.395 7.58714 60.352 7.58714Z" fill="white"/>
<path d="M52.0278 14.1387H48.5703C48.0365 15.4718 47.2225 16.0569 45.9015 16.0569C43.9697 16.0569 42.8753 14.8325 42.825 12.5538H52.2311V12.1916C52.2311 7.55999 49.7132 4.63647 45.7487 4.63647C41.9353 4.63647 39.166 7.60888 39.166 11.7061C39.166 15.8559 41.8348 18.6235 45.8746 18.6235C48.8488 18.6235 51.212 17.0115 52.0278 14.1387ZM48.5703 10.2461H42.825C43.0299 8.40402 44.1457 7.27563 45.7487 7.27563C47.5531 7.27563 48.4176 8.63225 48.5703 10.2461Z" fill="white"/>
<path d="M37.3904 18.2388V5.02148H33.8051V9.81246H28.75V5.02148H25.1667V18.2388H28.75V12.6815H33.8051V18.2388H37.3904Z" fill="white"/>
<path d="M23.2321 14.1387H19.7781C19.2407 15.4718 18.4303 16.0569 17.1076 16.0569C15.1775 16.0569 14.0831 14.8325 14.0309 12.5538H23.437V12.1916C23.437 7.55999 20.9193 4.63647 16.953 4.63647C13.1432 4.63647 10.372 7.60888 10.372 11.7061C10.372 15.8559 13.0389 18.6235 17.0824 18.6235C20.053 18.6235 22.4198 17.0115 23.2321 14.1387ZM19.7781 10.2461H14.0309C14.234 8.40402 15.3537 7.27563 16.953 7.27563C18.7591 7.27563 19.6234 8.63225 19.7781 10.2461Z" fill="white"/>
<path d="M13.7578 0.000610352H1.15308V18.2389H5.11923V3.4059H13.7578V0.000610352Z" fill="white"/>
<path d="M108.487 25.6313H105.067V43.538H108.665V37.2093C109.635 38.5679 111.066 39.1819 112.725 39.1819C116.172 39.1819 118.443 36.4684 118.443 32.3169C118.443 28.064 116.119 25.2727 112.57 25.2727C110.886 25.2727 109.457 25.914 108.487 27.2706V25.6313ZM111.677 28.1925C113.618 28.1925 114.818 29.7303 114.818 32.3169C114.818 34.8274 113.643 36.3382 111.704 36.3382C109.713 36.3382 108.539 34.8275 108.539 32.2662C108.539 29.705 109.713 28.1925 111.677 28.1925Z" fill="white"/>
<path d="M103.713 32.2395C103.713 28.039 101.036 25.244 96.9743 25.244C92.8412 25.244 90.1092 28.039 90.1092 32.2395C90.1092 36.4671 92.816 39.2582 96.9239 39.2582C101.036 39.2582 103.713 36.4923 103.713 32.2395ZM100.09 32.214C100.09 34.9273 98.9152 36.5177 96.9239 36.5177C94.9081 36.5177 93.7361 34.9546 93.7361 32.2395C93.7361 29.6021 94.9348 28.0153 96.8735 28.0153C98.89 28.0153 100.09 29.5749 100.09 32.214Z" fill="white"/>
<path d="M90.1252 28.4264V25.6334H77.8474V28.4264H82.1859V38.8523H85.7852V28.4264H90.1252Z" fill="white"/>
<path d="M78.0467 38.8523L72.2256 30.7557L77.3328 25.6334H73.0684L68.2451 30.8609V25.6334H64.6957V38.8523H68.2451V34.8023L69.8534 33.1667L73.656 38.8523H78.0467Z" fill="white"/>
<path d="M62.9361 34.7505H59.4659C58.9303 36.08 58.1162 36.6723 56.7846 36.6723C54.8455 36.6723 53.7512 35.4425 53.699 33.1638H63.141V32.8052C63.141 28.1701 60.6143 25.2465 56.6336 25.2465C52.8041 25.2465 50.0222 28.2208 50.0222 32.3179C50.0222 36.4676 52.6998 39.2317 56.7613 39.2317C59.7481 39.2317 62.122 37.6196 62.9361 34.7505ZM59.4659 30.858H53.699C53.9021 29.0123 55.0253 27.8856 56.6336 27.8856C58.4451 27.8856 59.315 29.2423 59.4659 30.858Z" fill="white"/>
<path d="M19.2433 43.538V35.4414H17.2288V20.614H4.2861V23.378C4.2861 28.7576 3.52241 32.5722 1.37667 35.4414H0V43.538H3.85306V38.8485H15.3922V43.538H19.2433ZM13.2465 35.4414H5.81722C7.42742 32.4962 8.2434 29.1669 8.2434 24.1731V23.8636H13.2465V35.4414Z" fill="white"/>
<path d="M120.524 22.4941C119.001 22.4941 117.772 23.7331 117.772 25.2727C117.772 26.8104 119.001 28.064 120.524 28.064C122.051 28.064 123.296 26.8104 123.296 25.2727C123.296 23.7331 122.051 22.4941 120.524 22.4941ZM120.524 22.9724C121.784 22.9724 122.81 24.0029 122.81 25.2727C122.81 26.5405 121.784 27.5712 120.524 27.5712C119.268 27.5712 118.244 26.5405 118.244 25.2727C118.244 24.0029 119.268 22.9724 120.524 22.9724ZM119.369 23.7222V26.8104H120.097V25.6584H120.391C120.956 25.6584 121.062 25.778 121.076 26.3775C121.091 26.6166 121.091 26.6746 121.147 26.8104H121.86C121.799 26.662 121.784 26.6166 121.784 26.3921C121.768 25.7219 121.666 25.5281 121.267 25.3615C121.651 25.2292 121.829 25.0173 121.829 24.6314C121.829 23.8398 121.091 23.7222 120.467 23.7222H119.369ZM120.097 25.0934V24.2856H120.437C120.911 24.2856 121.105 24.4069 121.105 24.6912C121.105 24.9866 120.911 25.0934 120.437 25.0934H120.097Z" fill="white"/>
<path d="M33.3006 38.8523V25.6334H29.1907L24.4949 34.574V25.6334H21.0229V38.8523H25.133L29.8304 29.9117V38.8523H33.3006Z" fill="white"/>
</g>
<defs>
<clipPath id="clip0_69_2">
<rect width="155" height="44" fill="white"/>
</clipPath>
</defs>
</svg>
