<svg width="48" height="48" viewBox="0 0 48 48" fill="none" xmlns="http://www.w3.org/2000/svg">
<path d="M45.549 32.7744H2.45133C1.09969 32.7744 0 31.6752 0 30.3238V7.14996C0 5.79861 1.09969 4.69922 2.45133 4.69922H45.549C46.9001 4.69922 48 5.79861 48 7.14996V30.3238C48 31.6752 46.9001 32.7744 45.549 32.7744ZM2.45133 6.67888C2.19135 6.67888 1.97946 6.89017 1.97946 7.14996V30.3238C1.97946 30.5836 2.19135 30.795 2.45133 30.795H45.549C45.8088 30.795 46.0204 30.5836 46.0204 30.3238V7.14996C46.0204 6.89017 45.8089 6.67888 45.549 6.67888H2.45133Z" fill="#41C2E8"/>
<path d="M18.8758 26.2589C18.5507 26.0811 18.3393 25.7497 18.3393 25.3794V12.0943C18.3393 11.7238 18.5464 11.3846 18.8758 11.2146C19.2049 11.0448 19.601 11.0731 19.903 11.2878L29.2441 17.9303C29.5055 18.1161 29.6603 18.4166 29.6603 18.7369C29.6603 19.0573 29.5055 19.3579 29.2441 19.5436C29.2441 19.5436 22.2379 24.5252 19.903 26.1859C19.7323 26.3073 19.3645 26.5264 18.8758 26.2589ZM20.3192 14.0127V23.461L26.9625 18.7369L20.3192 14.0127Z" fill="#41C2E8"/>
<path d="M47.0103 38.3932H28.0915C27.6521 36.7103 26.1189 35.4648 24.3002 35.4648C22.4818 35.4648 20.949 36.7103 20.5095 38.3932H0.98978C0.443265 38.3932 0 38.8365 0 39.383C0 39.9297 0.443265 40.3728 0.98978 40.3728H20.5096C20.9491 42.0557 22.482 43.3014 24.3003 43.3014C26.119 43.3014 27.6522 42.0556 28.0916 40.3728H47.0103C47.5564 40.3728 48 39.9298 48 39.383C48 38.8365 47.5564 38.3932 47.0103 38.3932ZM24.3002 41.3216C23.2317 41.3216 22.3618 40.4519 22.3618 39.3829C22.3618 38.3141 23.2317 37.4445 24.3002 37.4445C25.3693 37.4445 26.239 38.3141 26.239 39.3829C26.239 40.452 25.3693 41.3216 24.3002 41.3216Z" fill="#41C2E8"/>
</svg>
